<svg xmlns="http://www.w3.org/2000/svg" version="1.1" xmlns:xlink="http://www.w3.org/1999/xlink" xmlns:svgjs="http://svgjs.dev/svgjs" viewBox="0 0 800 800" opacity="0.24"><g stroke-width="1.5" stroke="hsla(0, 0%, 100%, 1.00)" fill="none" stroke-linecap="round" transform="matrix(1,0,0,1,-5,-2072.523468017578)"><path d="M10,10C19.821428571428573,13.75,35.41666666666667,35.708333333333336,57.142857142857146,28C78.86904761904762,20.291666666666664,90.47619047619048,-39.08333333333333,114.28571428571429,-27C138.0952380952381,-14.916666666666668,147.61904761904765,92.25,171.42857142857144,86C195.23809523809524,79.75,204.76190476190476,-45.75,228.57142857142858,-57C252.3809523809524,-68.25,261.9047619047619,23.25,285.7142857142857,32C309.5238095238095,40.75,319.0476190476191,-19.166666666666668,342.8571428571429,-15C366.6666666666667,-10.833333333333332,376.1904761904762,58.666666666666664,400,52C423.8095238095238,45.333333333333336,433.33333333333337,-49.291666666666664,457.14285714285717,-47C480.95238095238096,-44.708333333333336,490.47619047619054,62.791666666666664,514.2857142857143,63C538.0952380952382,63.208333333333336,547.6190476190477,-53.916666666666664,571.4285714285714,-46C595.2380952380952,-38.083333333333336,604.7619047619047,101.83333333333333,628.5714285714286,101C652.3809523809524,100.16666666666667,661.9047619047619,-38.33333333333333,685.7142857142858,-50C709.5238095238096,-61.66666666666667,719.047619047619,35.833333333333336,742.8571428571429,45C766.6666666666667,54.166666666666664,788.0952380952381,4.625,800,-6"></path><path d="M10,10C19.821428571428573,13.75,35.41666666666667,35.708333333333336,57.142857142857146,28C78.86904761904762,20.291666666666664,90.47619047619048,-39.08333333333333,114.28571428571429,-27C138.0952380952381,-14.916666666666668,147.61904761904765,92.25,171.42857142857144,86C195.23809523809524,79.75,204.76190476190476,-45.75,228.57142857142858,-57C252.3809523809524,-68.25,261.9047619047619,23.25,285.7142857142857,32C309.5238095238095,40.75,319.0476190476191,-19.166666666666668,342.8571428571429,-15C366.6666666666667,-10.833333333333332,376.1904761904762,58.666666666666664,400,52C423.8095238095238,45.333333333333336,433.33333333333337,-49.291666666666664,457.14285714285717,-47C480.95238095238096,-44.708333333333336,490.47619047619054,62.791666666666664,514.2857142857143,63C538.0952380952382,63.208333333333336,547.6190476190477,-53.916666666666664,571.4285714285714,-46C595.2380952380952,-38.083333333333336,604.7619047619047,101.83333333333333,628.5714285714286,101C652.3809523809524,100.16666666666667,661.9047619047619,-38.33333333333333,685.7142857142858,-50C709.5238095238096,-61.66666666666667,719.047619047619,35.833333333333336,742.8571428571429,45C766.6666666666667,54.166666666666664,788.0952380952381,4.625,800,-6" transform="matrix(1,0,0,1,0,4902)"></path><path d="M10,10C19.821428571428573,13.75,35.41666666666667,35.708333333333336,57.142857142857146,28C78.86904761904762,20.291666666666664,90.47619047619048,-39.08333333333333,114.28571428571429,-27C138.0952380952381,-14.916666666666668,147.61904761904765,92.25,171.42857142857144,86C195.23809523809524,79.75,204.76190476190476,-45.75,228.57142857142858,-57C252.3809523809524,-68.25,261.9047619047619,23.25,285.7142857142857,32C309.5238095238095,40.75,319.0476190476191,-19.166666666666668,342.8571428571429,-15C366.6666666666667,-10.833333333333332,376.1904761904762,58.666666666666664,400,52C423.8095238095238,45.333333333333336,433.33333333333337,-49.291666666666664,457.14285714285717,-47C480.95238095238096,-44.708333333333336,490.47619047619054,62.791666666666664,514.2857142857143,63C538.0952380952382,63.208333333333336,547.6190476190477,-53.916666666666664,571.4285714285714,-46C595.2380952380952,-38.083333333333336,604.7619047619047,101.83333333333333,628.5714285714286,101C652.3809523809524,100.16666666666667,661.9047619047619,-38.33333333333333,685.7142857142858,-50C709.5238095238096,-61.66666666666667,719.047619047619,35.833333333333336,742.8571428571429,45C766.6666666666667,54.166666666666664,788.0952380952381,4.625,800,-6" transform="matrix(1,0,0,1,0,4816)"></path><path d="M10,10C19.821428571428573,13.75,35.41666666666667,35.708333333333336,57.142857142857146,28C78.86904761904762,20.291666666666664,90.47619047619048,-39.08333333333333,114.28571428571429,-27C138.0952380952381,-14.916666666666668,147.61904761904765,92.25,171.42857142857144,86C195.23809523809524,79.75,204.76190476190476,-45.75,228.57142857142858,-57C252.3809523809524,-68.25,261.9047619047619,23.25,285.7142857142857,32C309.5238095238095,40.75,319.0476190476191,-19.166666666666668,342.8571428571429,-15C366.6666666666667,-10.833333333333332,376.1904761904762,58.666666666666664,400,52C423.8095238095238,45.333333333333336,433.33333333333337,-49.291666666666664,457.14285714285717,-47C480.95238095238096,-44.708333333333336,490.47619047619054,62.791666666666664,514.2857142857143,63C538.0952380952382,63.208333333333336,547.6190476190477,-53.916666666666664,571.4285714285714,-46C595.2380952380952,-38.083333333333336,604.7619047619047,101.83333333333333,628.5714285714286,101C652.3809523809524,100.16666666666667,661.9047619047619,-38.33333333333333,685.7142857142858,-50C709.5238095238096,-61.66666666666667,719.047619047619,35.833333333333336,742.8571428571429,45C766.6666666666667,54.166666666666664,788.0952380952381,4.625,800,-6" transform="matrix(1,0,0,1,0,4730)"></path><path d="M10,10C19.821428571428573,13.75,35.41666666666667,35.708333333333336,57.142857142857146,28C78.86904761904762,20.291666666666664,90.47619047619048,-39.08333333333333,114.28571428571429,-27C138.0952380952381,-14.916666666666668,147.61904761904765,92.25,171.42857142857144,86C195.23809523809524,79.75,204.76190476190476,-45.75,228.57142857142858,-57C252.3809523809524,-68.25,261.9047619047619,23.25,285.7142857142857,32C309.5238095238095,40.75,319.0476190476191,-19.166666666666668,342.8571428571429,-15C366.6666666666667,-10.833333333333332,376.1904761904762,58.666666666666664,400,52C423.8095238095238,45.333333333333336,433.33333333333337,-49.291666666666664,457.14285714285717,-47C480.95238095238096,-44.708333333333336,490.47619047619054,62.791666666666664,514.2857142857143,63C538.0952380952382,63.208333333333336,547.6190476190477,-53.916666666666664,571.4285714285714,-46C595.2380952380952,-38.083333333333336,604.7619047619047,101.83333333333333,628.5714285714286,101C652.3809523809524,100.16666666666667,661.9047619047619,-38.33333333333333,685.7142857142858,-50C709.5238095238096,-61.66666666666667,719.047619047619,35.833333333333336,742.8571428571429,45C766.6666666666667,54.166666666666664,788.0952380952381,4.625,800,-6" transform="matrix(1,0,0,1,0,4644)"></path><path d="M10,10C19.821428571428573,13.75,35.41666666666667,35.708333333333336,57.142857142857146,28C78.86904761904762,20.291666666666664,90.47619047619048,-39.08333333333333,114.28571428571429,-27C138.0952380952381,-14.916666666666668,147.61904761904765,92.25,171.42857142857144,86C195.23809523809524,79.75,204.76190476190476,-45.75,228.57142857142858,-57C252.3809523809524,-68.25,261.9047619047619,23.25,285.7142857142857,32C309.5238095238095,40.75,319.0476190476191,-19.166666666666668,342.8571428571429,-15C366.6666666666667,-10.833333333333332,376.1904761904762,58.666666666666664,400,52C423.8095238095238,45.333333333333336,433.33333333333337,-49.291666666666664,457.14285714285717,-47C480.95238095238096,-44.708333333333336,490.47619047619054,62.791666666666664,514.2857142857143,63C538.0952380952382,63.208333333333336,547.6190476190477,-53.916666666666664,571.4285714285714,-46C595.2380952380952,-38.083333333333336,604.7619047619047,101.83333333333333,628.5714285714286,101C652.3809523809524,100.16666666666667,661.9047619047619,-38.33333333333333,685.7142857142858,-50C709.5238095238096,-61.66666666666667,719.047619047619,35.833333333333336,742.8571428571429,45C766.6666666666667,54.166666666666664,788.0952380952381,4.625,800,-6" transform="matrix(1,0,0,1,0,4558)"></path><path d="M10,10C19.821428571428573,13.75,35.41666666666667,35.708333333333336,57.142857142857146,28C78.86904761904762,20.291666666666664,90.47619047619048,-39.08333333333333,114.28571428571429,-27C138.0952380952381,-14.916666666666668,147.61904761904765,92.25,171.42857142857144,86C195.23809523809524,79.75,204.76190476190476,-45.75,228.57142857142858,-57C252.3809523809524,-68.25,261.9047619047619,23.25,285.7142857142857,32C309.5238095238095,40.75,319.0476190476191,-19.166666666666668,342.8571428571429,-15C366.6666666666667,-10.833333333333332,376.1904761904762,58.666666666666664,400,52C423.8095238095238,45.333333333333336,433.33333333333337,-49.291666666666664,457.14285714285717,-47C480.95238095238096,-44.708333333333336,490.47619047619054,62.791666666666664,514.2857142857143,63C538.0952380952382,63.208333333333336,547.6190476190477,-53.916666666666664,571.4285714285714,-46C595.2380952380952,-38.083333333333336,604.7619047619047,101.83333333333333,628.5714285714286,101C652.3809523809524,100.16666666666667,661.9047619047619,-38.33333333333333,685.7142857142858,-50C709.5238095238096,-61.66666666666667,719.047619047619,35.833333333333336,742.8571428571429,45C766.6666666666667,54.166666666666664,788.0952380952381,4.625,800,-6" transform="matrix(1,0,0,1,0,4472)"></path><path d="M10,10C19.821428571428573,13.75,35.41666666666667,35.708333333333336,57.142857142857146,28C78.86904761904762,20.291666666666664,90.47619047619048,-39.08333333333333,114.28571428571429,-27C138.0952380952381,-14.916666666666668,147.61904761904765,92.25,171.42857142857144,86C195.23809523809524,79.75,204.76190476190476,-45.75,228.57142857142858,-57C252.3809523809524,-68.25,261.9047619047619,23.25,285.7142857142857,32C309.5238095238095,40.75,319.0476190476191,-19.166666666666668,342.8571428571429,-15C366.6666666666667,-10.833333333333332,376.1904761904762,58.666666666666664,400,52C423.8095238095238,45.333333333333336,433.33333333333337,-49.291666666666664,457.14285714285717,-47C480.95238095238096,-44.708333333333336,490.47619047619054,62.791666666666664,514.2857142857143,63C538.0952380952382,63.208333333333336,547.6190476190477,-53.916666666666664,571.4285714285714,-46C595.2380952380952,-38.083333333333336,604.7619047619047,101.83333333333333,628.5714285714286,101C652.3809523809524,100.16666666666667,661.9047619047619,-38.33333333333333,685.7142857142858,-50C709.5238095238096,-61.66666666666667,719.047619047619,35.833333333333336,742.8571428571429,45C766.6666666666667,54.166666666666664,788.0952380952381,4.625,800,-6" transform="matrix(1,0,0,1,0,4386)"></path><path d="M10,10C19.821428571428573,13.75,35.41666666666667,35.708333333333336,57.142857142857146,28C78.86904761904762,20.291666666666664,90.47619047619048,-39.08333333333333,114.28571428571429,-27C138.0952380952381,-14.916666666666668,147.61904761904765,92.25,171.42857142857144,86C195.23809523809524,79.75,204.76190476190476,-45.75,228.57142857142858,-57C252.3809523809524,-68.25,261.9047619047619,23.25,285.7142857142857,32C309.5238095238095,40.75,319.0476190476191,-19.166666666666668,342.8571428571429,-15C366.6666666666667,-10.833333333333332,376.1904761904762,58.666666666666664,400,52C423.8095238095238,45.333333333333336,433.33333333333337,-49.291666666666664,457.14285714285717,-47C480.95238095238096,-44.708333333333336,490.47619047619054,62.791666666666664,514.2857142857143,63C538.0952380952382,63.208333333333336,547.6190476190477,-53.916666666666664,571.4285714285714,-46C595.2380952380952,-38.083333333333336,604.7619047619047,101.83333333333333,628.5714285714286,101C652.3809523809524,100.16666666666667,661.9047619047619,-38.33333333333333,685.7142857142858,-50C709.5238095238096,-61.66666666666667,719.047619047619,35.833333333333336,742.8571428571429,45C766.6666666666667,54.166666666666664,788.0952380952381,4.625,800,-6" transform="matrix(1,0,0,1,0,4300)"></path><path d="M10,10C19.821428571428573,13.75,35.41666666666667,35.708333333333336,57.142857142857146,28C78.86904761904762,20.291666666666664,90.47619047619048,-39.08333333333333,114.28571428571429,-27C138.0952380952381,-14.916666666666668,147.61904761904765,92.25,171.42857142857144,86C195.23809523809524,79.75,204.76190476190476,-45.75,228.57142857142858,-57C252.3809523809524,-68.25,261.9047619047619,23.25,285.7142857142857,32C309.5238095238095,40.75,319.0476190476191,-19.166666666666668,342.8571428571429,-15C366.6666666666667,-10.833333333333332,376.1904761904762,58.666666666666664,400,52C423.8095238095238,45.333333333333336,433.33333333333337,-49.291666666666664,457.14285714285717,-47C480.95238095238096,-44.708333333333336,490.47619047619054,62.791666666666664,514.2857142857143,63C538.0952380952382,63.208333333333336,547.6190476190477,-53.916666666666664,571.4285714285714,-46C595.2380952380952,-38.083333333333336,604.7619047619047,101.83333333333333,628.5714285714286,101C652.3809523809524,100.16666666666667,661.9047619047619,-38.33333333333333,685.7142857142858,-50C709.5238095238096,-61.66666666666667,719.047619047619,35.833333333333336,742.8571428571429,45C766.6666666666667,54.166666666666664,788.0952380952381,4.625,800,-6" transform="matrix(1,0,0,1,0,4214)"></path><path d="M10,10C19.821428571428573,13.75,35.41666666666667,35.708333333333336,57.142857142857146,28C78.86904761904762,20.291666666666664,90.47619047619048,-39.08333333333333,114.28571428571429,-27C138.0952380952381,-14.916666666666668,147.61904761904765,92.25,171.42857142857144,86C195.23809523809524,79.75,204.76190476190476,-45.75,228.57142857142858,-57C252.3809523809524,-68.25,261.9047619047619,23.25,285.7142857142857,32C309.5238095238095,40.75,319.0476190476191,-19.166666666666668,342.8571428571429,-15C366.6666666666667,-10.833333333333332,376.1904761904762,58.666666666666664,400,52C423.8095238095238,45.333333333333336,433.33333333333337,-49.291666666666664,457.14285714285717,-47C480.95238095238096,-44.708333333333336,490.47619047619054,62.791666666666664,514.2857142857143,63C538.0952380952382,63.208333333333336,547.6190476190477,-53.916666666666664,571.4285714285714,-46C595.2380952380952,-38.083333333333336,604.7619047619047,101.83333333333333,628.5714285714286,101C652.3809523809524,100.16666666666667,661.9047619047619,-38.33333333333333,685.7142857142858,-50C709.5238095238096,-61.66666666666667,719.047619047619,35.833333333333336,742.8571428571429,45C766.6666666666667,54.166666666666664,788.0952380952381,4.625,800,-6" transform="matrix(1,0,0,1,0,4128)"></path><path d="M10,10C19.821428571428573,13.75,35.41666666666667,35.708333333333336,57.142857142857146,28C78.86904761904762,20.291666666666664,90.47619047619048,-39.08333333333333,114.28571428571429,-27C138.0952380952381,-14.916666666666668,147.61904761904765,92.25,171.42857142857144,86C195.23809523809524,79.75,204.76190476190476,-45.75,228.57142857142858,-57C252.3809523809524,-68.25,261.9047619047619,23.25,285.7142857142857,32C309.5238095238095,40.75,319.0476190476191,-19.166666666666668,342.8571428571429,-15C366.6666666666667,-10.833333333333332,376.1904761904762,58.666666666666664,400,52C423.8095238095238,45.333333333333336,433.33333333333337,-49.291666666666664,457.14285714285717,-47C480.95238095238096,-44.708333333333336,490.47619047619054,62.791666666666664,514.2857142857143,63C538.0952380952382,63.208333333333336,547.6190476190477,-53.916666666666664,571.4285714285714,-46C595.2380952380952,-38.083333333333336,604.7619047619047,101.83333333333333,628.5714285714286,101C652.3809523809524,100.16666666666667,661.9047619047619,-38.33333333333333,685.7142857142858,-50C709.5238095238096,-61.66666666666667,719.047619047619,35.833333333333336,742.8571428571429,45C766.6666666666667,54.166666666666664,788.0952380952381,4.625,800,-6" transform="matrix(1,0,0,1,0,4042)"></path><path d="M10,10C19.821428571428573,13.75,35.41666666666667,35.708333333333336,57.142857142857146,28C78.86904761904762,20.291666666666664,90.47619047619048,-39.08333333333333,114.28571428571429,-27C138.0952380952381,-14.916666666666668,147.61904761904765,92.25,171.42857142857144,86C195.23809523809524,79.75,204.76190476190476,-45.75,228.57142857142858,-57C252.3809523809524,-68.25,261.9047619047619,23.25,285.7142857142857,32C309.5238095238095,40.75,319.0476190476191,-19.166666666666668,342.8571428571429,-15C366.6666666666667,-10.833333333333332,376.1904761904762,58.666666666666664,400,52C423.8095238095238,45.333333333333336,433.33333333333337,-49.291666666666664,457.14285714285717,-47C480.95238095238096,-44.708333333333336,490.47619047619054,62.791666666666664,514.2857142857143,63C538.0952380952382,63.208333333333336,547.6190476190477,-53.916666666666664,571.4285714285714,-46C595.2380952380952,-38.083333333333336,604.7619047619047,101.83333333333333,628.5714285714286,101C652.3809523809524,100.16666666666667,661.9047619047619,-38.33333333333333,685.7142857142858,-50C709.5238095238096,-61.66666666666667,719.047619047619,35.833333333333336,742.8571428571429,45C766.6666666666667,54.166666666666664,788.0952380952381,4.625,800,-6" transform="matrix(1,0,0,1,0,3956)"></path><path d="M10,10C19.821428571428573,13.75,35.41666666666667,35.708333333333336,57.142857142857146,28C78.86904761904762,20.291666666666664,90.47619047619048,-39.08333333333333,114.28571428571429,-27C138.0952380952381,-14.916666666666668,147.61904761904765,92.25,171.42857142857144,86C195.23809523809524,79.75,204.76190476190476,-45.75,228.57142857142858,-57C252.3809523809524,-68.25,261.9047619047619,23.25,285.7142857142857,32C309.5238095238095,40.75,319.0476190476191,-19.166666666666668,342.8571428571429,-15C366.6666666666667,-10.833333333333332,376.1904761904762,58.666666666666664,400,52C423.8095238095238,45.333333333333336,433.33333333333337,-49.291666666666664,457.14285714285717,-47C480.95238095238096,-44.708333333333336,490.47619047619054,62.791666666666664,514.2857142857143,63C538.0952380952382,63.208333333333336,547.6190476190477,-53.916666666666664,571.4285714285714,-46C595.2380952380952,-38.083333333333336,604.7619047619047,101.83333333333333,628.5714285714286,101C652.3809523809524,100.16666666666667,661.9047619047619,-38.33333333333333,685.7142857142858,-50C709.5238095238096,-61.66666666666667,719.047619047619,35.833333333333336,742.8571428571429,45C766.6666666666667,54.166666666666664,788.0952380952381,4.625,800,-6" transform="matrix(1,0,0,1,0,3870)"></path><path d="M10,10C19.821428571428573,13.75,35.41666666666667,35.708333333333336,57.142857142857146,28C78.86904761904762,20.291666666666664,90.47619047619048,-39.08333333333333,114.28571428571429,-27C138.0952380952381,-14.916666666666668,147.61904761904765,92.25,171.42857142857144,86C195.23809523809524,79.75,204.76190476190476,-45.75,228.57142857142858,-57C252.3809523809524,-68.25,261.9047619047619,23.25,285.7142857142857,32C309.5238095238095,40.75,319.0476190476191,-19.166666666666668,342.8571428571429,-15C366.6666666666667,-10.833333333333332,376.1904761904762,58.666666666666664,400,52C423.8095238095238,45.333333333333336,433.33333333333337,-49.291666666666664,457.14285714285717,-47C480.95238095238096,-44.708333333333336,490.47619047619054,62.791666666666664,514.2857142857143,63C538.0952380952382,63.208333333333336,547.6190476190477,-53.916666666666664,571.4285714285714,-46C595.2380952380952,-38.083333333333336,604.7619047619047,101.83333333333333,628.5714285714286,101C652.3809523809524,100.16666666666667,661.9047619047619,-38.33333333333333,685.7142857142858,-50C709.5238095238096,-61.66666666666667,719.047619047619,35.833333333333336,742.8571428571429,45C766.6666666666667,54.166666666666664,788.0952380952381,4.625,800,-6" transform="matrix(1,0,0,1,0,3784)"></path><path d="M10,10C19.821428571428573,13.75,35.41666666666667,35.708333333333336,57.142857142857146,28C78.86904761904762,20.291666666666664,90.47619047619048,-39.08333333333333,114.28571428571429,-27C138.0952380952381,-14.916666666666668,147.61904761904765,92.25,171.42857142857144,86C195.23809523809524,79.75,204.76190476190476,-45.75,228.57142857142858,-57C252.3809523809524,-68.25,261.9047619047619,23.25,285.7142857142857,32C309.5238095238095,40.75,319.0476190476191,-19.166666666666668,342.8571428571429,-15C366.6666666666667,-10.833333333333332,376.1904761904762,58.666666666666664,400,52C423.8095238095238,45.333333333333336,433.33333333333337,-49.291666666666664,457.14285714285717,-47C480.95238095238096,-44.708333333333336,490.47619047619054,62.791666666666664,514.2857142857143,63C538.0952380952382,63.208333333333336,547.6190476190477,-53.916666666666664,571.4285714285714,-46C595.2380952380952,-38.083333333333336,604.7619047619047,101.83333333333333,628.5714285714286,101C652.3809523809524,100.16666666666667,661.9047619047619,-38.33333333333333,685.7142857142858,-50C709.5238095238096,-61.66666666666667,719.047619047619,35.833333333333336,742.8571428571429,45C766.6666666666667,54.166666666666664,788.0952380952381,4.625,800,-6" transform="matrix(1,0,0,1,0,3698)"></path><path d="M10,10C19.821428571428573,13.75,35.41666666666667,35.708333333333336,57.142857142857146,28C78.86904761904762,20.291666666666664,90.47619047619048,-39.08333333333333,114.28571428571429,-27C138.0952380952381,-14.916666666666668,147.61904761904765,92.25,171.42857142857144,86C195.23809523809524,79.75,204.76190476190476,-45.75,228.57142857142858,-57C252.3809523809524,-68.25,261.9047619047619,23.25,285.7142857142857,32C309.5238095238095,40.75,319.0476190476191,-19.166666666666668,342.8571428571429,-15C366.6666666666667,-10.833333333333332,376.1904761904762,58.666666666666664,400,52C423.8095238095238,45.333333333333336,433.33333333333337,-49.291666666666664,457.14285714285717,-47C480.95238095238096,-44.708333333333336,490.47619047619054,62.791666666666664,514.2857142857143,63C538.0952380952382,63.208333333333336,547.6190476190477,-53.916666666666664,571.4285714285714,-46C595.2380952380952,-38.083333333333336,604.7619047619047,101.83333333333333,628.5714285714286,101C652.3809523809524,100.16666666666667,661.9047619047619,-38.33333333333333,685.7142857142858,-50C709.5238095238096,-61.66666666666667,719.047619047619,35.833333333333336,742.8571428571429,45C766.6666666666667,54.166666666666664,788.0952380952381,4.625,800,-6" transform="matrix(1,0,0,1,0,3612)"></path><path d="M10,10C19.821428571428573,13.75,35.41666666666667,35.708333333333336,57.142857142857146,28C78.86904761904762,20.291666666666664,90.47619047619048,-39.08333333333333,114.28571428571429,-27C138.0952380952381,-14.916666666666668,147.61904761904765,92.25,171.42857142857144,86C195.23809523809524,79.75,204.76190476190476,-45.75,228.57142857142858,-57C252.3809523809524,-68.25,261.9047619047619,23.25,285.7142857142857,32C309.5238095238095,40.75,319.0476190476191,-19.166666666666668,342.8571428571429,-15C366.6666666666667,-10.833333333333332,376.1904761904762,58.666666666666664,400,52C423.8095238095238,45.333333333333336,433.33333333333337,-49.291666666666664,457.14285714285717,-47C480.95238095238096,-44.708333333333336,490.47619047619054,62.791666666666664,514.2857142857143,63C538.0952380952382,63.208333333333336,547.6190476190477,-53.916666666666664,571.4285714285714,-46C595.2380952380952,-38.083333333333336,604.7619047619047,101.83333333333333,628.5714285714286,101C652.3809523809524,100.16666666666667,661.9047619047619,-38.33333333333333,685.7142857142858,-50C709.5238095238096,-61.66666666666667,719.047619047619,35.833333333333336,742.8571428571429,45C766.6666666666667,54.166666666666664,788.0952380952381,4.625,800,-6" transform="matrix(1,0,0,1,0,3526)"></path><path d="M10,10C19.821428571428573,13.75,35.41666666666667,35.708333333333336,57.142857142857146,28C78.86904761904762,20.291666666666664,90.47619047619048,-39.08333333333333,114.28571428571429,-27C138.0952380952381,-14.916666666666668,147.61904761904765,92.25,171.42857142857144,86C195.23809523809524,79.75,204.76190476190476,-45.75,228.57142857142858,-57C252.3809523809524,-68.25,261.9047619047619,23.25,285.7142857142857,32C309.5238095238095,40.75,319.0476190476191,-19.166666666666668,342.8571428571429,-15C366.6666666666667,-10.833333333333332,376.1904761904762,58.666666666666664,400,52C423.8095238095238,45.333333333333336,433.33333333333337,-49.291666666666664,457.14285714285717,-47C480.95238095238096,-44.708333333333336,490.47619047619054,62.791666666666664,514.2857142857143,63C538.0952380952382,63.208333333333336,547.6190476190477,-53.916666666666664,571.4285714285714,-46C595.2380952380952,-38.083333333333336,604.7619047619047,101.83333333333333,628.5714285714286,101C652.3809523809524,100.16666666666667,661.9047619047619,-38.33333333333333,685.7142857142858,-50C709.5238095238096,-61.66666666666667,719.047619047619,35.833333333333336,742.8571428571429,45C766.6666666666667,54.166666666666664,788.0952380952381,4.625,800,-6" transform="matrix(1,0,0,1,0,3440)"></path><path d="M10,10C19.821428571428573,13.75,35.41666666666667,35.708333333333336,57.142857142857146,28C78.86904761904762,20.291666666666664,90.47619047619048,-39.08333333333333,114.28571428571429,-27C138.0952380952381,-14.916666666666668,147.61904761904765,92.25,171.42857142857144,86C195.23809523809524,79.75,204.76190476190476,-45.75,228.57142857142858,-57C252.3809523809524,-68.25,261.9047619047619,23.25,285.7142857142857,32C309.5238095238095,40.75,319.0476190476191,-19.166666666666668,342.8571428571429,-15C366.6666666666667,-10.833333333333332,376.1904761904762,58.666666666666664,400,52C423.8095238095238,45.333333333333336,433.33333333333337,-49.291666666666664,457.14285714285717,-47C480.95238095238096,-44.708333333333336,490.47619047619054,62.791666666666664,514.2857142857143,63C538.0952380952382,63.208333333333336,547.6190476190477,-53.916666666666664,571.4285714285714,-46C595.2380952380952,-38.083333333333336,604.7619047619047,101.83333333333333,628.5714285714286,101C652.3809523809524,100.16666666666667,661.9047619047619,-38.33333333333333,685.7142857142858,-50C709.5238095238096,-61.66666666666667,719.047619047619,35.833333333333336,742.8571428571429,45C766.6666666666667,54.166666666666664,788.0952380952381,4.625,800,-6" transform="matrix(1,0,0,1,0,3354)"></path><path d="M10,10C19.821428571428573,13.75,35.41666666666667,35.708333333333336,57.142857142857146,28C78.86904761904762,20.291666666666664,90.47619047619048,-39.08333333333333,114.28571428571429,-27C138.0952380952381,-14.916666666666668,147.61904761904765,92.25,171.42857142857144,86C195.23809523809524,79.75,204.76190476190476,-45.75,228.57142857142858,-57C252.3809523809524,-68.25,261.9047619047619,23.25,285.7142857142857,32C309.5238095238095,40.75,319.0476190476191,-19.166666666666668,342.8571428571429,-15C366.6666666666667,-10.833333333333332,376.1904761904762,58.666666666666664,400,52C423.8095238095238,45.333333333333336,433.33333333333337,-49.291666666666664,457.14285714285717,-47C480.95238095238096,-44.708333333333336,490.47619047619054,62.791666666666664,514.2857142857143,63C538.0952380952382,63.208333333333336,547.6190476190477,-53.916666666666664,571.4285714285714,-46C595.2380952380952,-38.083333333333336,604.7619047619047,101.83333333333333,628.5714285714286,101C652.3809523809524,100.16666666666667,661.9047619047619,-38.33333333333333,685.7142857142858,-50C709.5238095238096,-61.66666666666667,719.047619047619,35.833333333333336,742.8571428571429,45C766.6666666666667,54.166666666666664,788.0952380952381,4.625,800,-6" transform="matrix(1,0,0,1,0,3268)"></path><path d="M10,10C19.821428571428573,13.75,35.41666666666667,35.708333333333336,57.142857142857146,28C78.86904761904762,20.291666666666664,90.47619047619048,-39.08333333333333,114.28571428571429,-27C138.0952380952381,-14.916666666666668,147.61904761904765,92.25,171.42857142857144,86C195.23809523809524,79.75,204.76190476190476,-45.75,228.57142857142858,-57C252.3809523809524,-68.25,261.9047619047619,23.25,285.7142857142857,32C309.5238095238095,40.75,319.0476190476191,-19.166666666666668,342.8571428571429,-15C366.6666666666667,-10.833333333333332,376.1904761904762,58.666666666666664,400,52C423.8095238095238,45.333333333333336,433.33333333333337,-49.291666666666664,457.14285714285717,-47C480.95238095238096,-44.708333333333336,490.47619047619054,62.791666666666664,514.2857142857143,63C538.0952380952382,63.208333333333336,547.6190476190477,-53.916666666666664,571.4285714285714,-46C595.2380952380952,-38.083333333333336,604.7619047619047,101.83333333333333,628.5714285714286,101C652.3809523809524,100.16666666666667,661.9047619047619,-38.33333333333333,685.7142857142858,-50C709.5238095238096,-61.66666666666667,719.047619047619,35.833333333333336,742.8571428571429,45C766.6666666666667,54.166666666666664,788.0952380952381,4.625,800,-6" transform="matrix(1,0,0,1,0,3182)"></path><path d="M10,10C19.821428571428573,13.75,35.41666666666667,35.708333333333336,57.142857142857146,28C78.86904761904762,20.291666666666664,90.47619047619048,-39.08333333333333,114.28571428571429,-27C138.0952380952381,-14.916666666666668,147.61904761904765,92.25,171.42857142857144,86C195.23809523809524,79.75,204.76190476190476,-45.75,228.57142857142858,-57C252.3809523809524,-68.25,261.9047619047619,23.25,285.7142857142857,32C309.5238095238095,40.75,319.0476190476191,-19.166666666666668,342.8571428571429,-15C366.6666666666667,-10.833333333333332,376.1904761904762,58.666666666666664,400,52C423.8095238095238,45.333333333333336,433.33333333333337,-49.291666666666664,457.14285714285717,-47C480.95238095238096,-44.708333333333336,490.47619047619054,62.791666666666664,514.2857142857143,63C538.0952380952382,63.208333333333336,547.6190476190477,-53.916666666666664,571.4285714285714,-46C595.2380952380952,-38.083333333333336,604.7619047619047,101.83333333333333,628.5714285714286,101C652.3809523809524,100.16666666666667,661.9047619047619,-38.33333333333333,685.7142857142858,-50C709.5238095238096,-61.66666666666667,719.047619047619,35.833333333333336,742.8571428571429,45C766.6666666666667,54.166666666666664,788.0952380952381,4.625,800,-6" transform="matrix(1,0,0,1,0,3096)"></path><path d="M10,10C19.821428571428573,13.75,35.41666666666667,35.708333333333336,57.142857142857146,28C78.86904761904762,20.291666666666664,90.47619047619048,-39.08333333333333,114.28571428571429,-27C138.0952380952381,-14.916666666666668,147.61904761904765,92.25,171.42857142857144,86C195.23809523809524,79.75,204.76190476190476,-45.75,228.57142857142858,-57C252.3809523809524,-68.25,261.9047619047619,23.25,285.7142857142857,32C309.5238095238095,40.75,319.0476190476191,-19.166666666666668,342.8571428571429,-15C366.6666666666667,-10.833333333333332,376.1904761904762,58.666666666666664,400,52C423.8095238095238,45.333333333333336,433.33333333333337,-49.291666666666664,457.14285714285717,-47C480.95238095238096,-44.708333333333336,490.47619047619054,62.791666666666664,514.2857142857143,63C538.0952380952382,63.208333333333336,547.6190476190477,-53.916666666666664,571.4285714285714,-46C595.2380952380952,-38.083333333333336,604.7619047619047,101.83333333333333,628.5714285714286,101C652.3809523809524,100.16666666666667,661.9047619047619,-38.33333333333333,685.7142857142858,-50C709.5238095238096,-61.66666666666667,719.047619047619,35.833333333333336,742.8571428571429,45C766.6666666666667,54.166666666666664,788.0952380952381,4.625,800,-6" transform="matrix(1,0,0,1,0,3010)"></path><path d="M10,10C19.821428571428573,13.75,35.41666666666667,35.708333333333336,57.142857142857146,28C78.86904761904762,20.291666666666664,90.47619047619048,-39.08333333333333,114.28571428571429,-27C138.0952380952381,-14.916666666666668,147.61904761904765,92.25,171.42857142857144,86C195.23809523809524,79.75,204.76190476190476,-45.75,228.57142857142858,-57C252.3809523809524,-68.25,261.9047619047619,23.25,285.7142857142857,32C309.5238095238095,40.75,319.0476190476191,-19.166666666666668,342.8571428571429,-15C366.6666666666667,-10.833333333333332,376.1904761904762,58.666666666666664,400,52C423.8095238095238,45.333333333333336,433.33333333333337,-49.291666666666664,457.14285714285717,-47C480.95238095238096,-44.708333333333336,490.47619047619054,62.791666666666664,514.2857142857143,63C538.0952380952382,63.208333333333336,547.6190476190477,-53.916666666666664,571.4285714285714,-46C595.2380952380952,-38.083333333333336,604.7619047619047,101.83333333333333,628.5714285714286,101C652.3809523809524,100.16666666666667,661.9047619047619,-38.33333333333333,685.7142857142858,-50C709.5238095238096,-61.66666666666667,719.047619047619,35.833333333333336,742.8571428571429,45C766.6666666666667,54.166666666666664,788.0952380952381,4.625,800,-6" transform="matrix(1,0,0,1,0,2924)"></path><path d="M10,10C19.821428571428573,13.75,35.41666666666667,35.708333333333336,57.142857142857146,28C78.86904761904762,20.291666666666664,90.47619047619048,-39.08333333333333,114.28571428571429,-27C138.0952380952381,-14.916666666666668,147.61904761904765,92.25,171.42857142857144,86C195.23809523809524,79.75,204.76190476190476,-45.75,228.57142857142858,-57C252.3809523809524,-68.25,261.9047619047619,23.25,285.7142857142857,32C309.5238095238095,40.75,319.0476190476191,-19.166666666666668,342.8571428571429,-15C366.6666666666667,-10.833333333333332,376.1904761904762,58.666666666666664,400,52C423.8095238095238,45.333333333333336,433.33333333333337,-49.291666666666664,457.14285714285717,-47C480.95238095238096,-44.708333333333336,490.47619047619054,62.791666666666664,514.2857142857143,63C538.0952380952382,63.208333333333336,547.6190476190477,-53.916666666666664,571.4285714285714,-46C595.2380952380952,-38.083333333333336,604.7619047619047,101.83333333333333,628.5714285714286,101C652.3809523809524,100.16666666666667,661.9047619047619,-38.33333333333333,685.7142857142858,-50C709.5238095238096,-61.66666666666667,719.047619047619,35.833333333333336,742.8571428571429,45C766.6666666666667,54.166666666666664,788.0952380952381,4.625,800,-6" transform="matrix(1,0,0,1,0,2838)"></path><path d="M10,10C19.821428571428573,13.75,35.41666666666667,35.708333333333336,57.142857142857146,28C78.86904761904762,20.291666666666664,90.47619047619048,-39.08333333333333,114.28571428571429,-27C138.0952380952381,-14.916666666666668,147.61904761904765,92.25,171.42857142857144,86C195.23809523809524,79.75,204.76190476190476,-45.75,228.57142857142858,-57C252.3809523809524,-68.25,261.9047619047619,23.25,285.7142857142857,32C309.5238095238095,40.75,319.0476190476191,-19.166666666666668,342.8571428571429,-15C366.6666666666667,-10.833333333333332,376.1904761904762,58.666666666666664,400,52C423.8095238095238,45.333333333333336,433.33333333333337,-49.291666666666664,457.14285714285717,-47C480.95238095238096,-44.708333333333336,490.47619047619054,62.791666666666664,514.2857142857143,63C538.0952380952382,63.208333333333336,547.6190476190477,-53.916666666666664,571.4285714285714,-46C595.2380952380952,-38.083333333333336,604.7619047619047,101.83333333333333,628.5714285714286,101C652.3809523809524,100.16666666666667,661.9047619047619,-38.33333333333333,685.7142857142858,-50C709.5238095238096,-61.66666666666667,719.047619047619,35.833333333333336,742.8571428571429,45C766.6666666666667,54.166666666666664,788.0952380952381,4.625,800,-6" transform="matrix(1,0,0,1,0,2752)"></path><path d="M10,10C19.821428571428573,13.75,35.41666666666667,35.708333333333336,57.142857142857146,28C78.86904761904762,20.291666666666664,90.47619047619048,-39.08333333333333,114.28571428571429,-27C138.0952380952381,-14.916666666666668,147.61904761904765,92.25,171.42857142857144,86C195.23809523809524,79.75,204.76190476190476,-45.75,228.57142857142858,-57C252.3809523809524,-68.25,261.9047619047619,23.25,285.7142857142857,32C309.5238095238095,40.75,319.0476190476191,-19.166666666666668,342.8571428571429,-15C366.6666666666667,-10.833333333333332,376.1904761904762,58.666666666666664,400,52C423.8095238095238,45.333333333333336,433.33333333333337,-49.291666666666664,457.14285714285717,-47C480.95238095238096,-44.708333333333336,490.47619047619054,62.791666666666664,514.2857142857143,63C538.0952380952382,63.208333333333336,547.6190476190477,-53.916666666666664,571.4285714285714,-46C595.2380952380952,-38.083333333333336,604.7619047619047,101.83333333333333,628.5714285714286,101C652.3809523809524,100.16666666666667,661.9047619047619,-38.33333333333333,685.7142857142858,-50C709.5238095238096,-61.66666666666667,719.047619047619,35.833333333333336,742.8571428571429,45C766.6666666666667,54.166666666666664,788.0952380952381,4.625,800,-6" transform="matrix(1,0,0,1,0,2666)"></path><path d="M10,10C19.821428571428573,13.75,35.41666666666667,35.708333333333336,57.142857142857146,28C78.86904761904762,20.291666666666664,90.47619047619048,-39.08333333333333,114.28571428571429,-27C138.0952380952381,-14.916666666666668,147.61904761904765,92.25,171.42857142857144,86C195.23809523809524,79.75,204.76190476190476,-45.75,228.57142857142858,-57C252.3809523809524,-68.25,261.9047619047619,23.25,285.7142857142857,32C309.5238095238095,40.75,319.0476190476191,-19.166666666666668,342.8571428571429,-15C366.6666666666667,-10.833333333333332,376.1904761904762,58.666666666666664,400,52C423.8095238095238,45.333333333333336,433.33333333333337,-49.291666666666664,457.14285714285717,-47C480.95238095238096,-44.708333333333336,490.47619047619054,62.791666666666664,514.2857142857143,63C538.0952380952382,63.208333333333336,547.6190476190477,-53.916666666666664,571.4285714285714,-46C595.2380952380952,-38.083333333333336,604.7619047619047,101.83333333333333,628.5714285714286,101C652.3809523809524,100.16666666666667,661.9047619047619,-38.33333333333333,685.7142857142858,-50C709.5238095238096,-61.66666666666667,719.047619047619,35.833333333333336,742.8571428571429,45C766.6666666666667,54.166666666666664,788.0952380952381,4.625,800,-6" transform="matrix(1,0,0,1,0,2580)"></path><path d="M10,10C19.821428571428573,13.75,35.41666666666667,35.708333333333336,57.142857142857146,28C78.86904761904762,20.291666666666664,90.47619047619048,-39.08333333333333,114.28571428571429,-27C138.0952380952381,-14.916666666666668,147.61904761904765,92.25,171.42857142857144,86C195.23809523809524,79.75,204.76190476190476,-45.75,228.57142857142858,-57C252.3809523809524,-68.25,261.9047619047619,23.25,285.7142857142857,32C309.5238095238095,40.75,319.0476190476191,-19.166666666666668,342.8571428571429,-15C366.6666666666667,-10.833333333333332,376.1904761904762,58.666666666666664,400,52C423.8095238095238,45.333333333333336,433.33333333333337,-49.291666666666664,457.14285714285717,-47C480.95238095238096,-44.708333333333336,490.47619047619054,62.791666666666664,514.2857142857143,63C538.0952380952382,63.208333333333336,547.6190476190477,-53.916666666666664,571.4285714285714,-46C595.2380952380952,-38.083333333333336,604.7619047619047,101.83333333333333,628.5714285714286,101C652.3809523809524,100.16666666666667,661.9047619047619,-38.33333333333333,685.7142857142858,-50C709.5238095238096,-61.66666666666667,719.047619047619,35.833333333333336,742.8571428571429,45C766.6666666666667,54.166666666666664,788.0952380952381,4.625,800,-6" transform="matrix(1,0,0,1,0,2494)"></path><path d="M10,10C19.821428571428573,13.75,35.41666666666667,35.708333333333336,57.142857142857146,28C78.86904761904762,20.291666666666664,90.47619047619048,-39.08333333333333,114.28571428571429,-27C138.0952380952381,-14.916666666666668,147.61904761904765,92.25,171.42857142857144,86C195.23809523809524,79.75,204.76190476190476,-45.75,228.57142857142858,-57C252.3809523809524,-68.25,261.9047619047619,23.25,285.7142857142857,32C309.5238095238095,40.75,319.0476190476191,-19.166666666666668,342.8571428571429,-15C366.6666666666667,-10.833333333333332,376.1904761904762,58.666666666666664,400,52C423.8095238095238,45.333333333333336,433.33333333333337,-49.291666666666664,457.14285714285717,-47C480.95238095238096,-44.708333333333336,490.47619047619054,62.791666666666664,514.2857142857143,63C538.0952380952382,63.208333333333336,547.6190476190477,-53.916666666666664,571.4285714285714,-46C595.2380952380952,-38.083333333333336,604.7619047619047,101.83333333333333,628.5714285714286,101C652.3809523809524,100.16666666666667,661.9047619047619,-38.33333333333333,685.7142857142858,-50C709.5238095238096,-61.66666666666667,719.047619047619,35.833333333333336,742.8571428571429,45C766.6666666666667,54.166666666666664,788.0952380952381,4.625,800,-6" transform="matrix(1,0,0,1,0,2408)"></path><path d="M10,10C19.821428571428573,13.75,35.41666666666667,35.708333333333336,57.142857142857146,28C78.86904761904762,20.291666666666664,90.47619047619048,-39.08333333333333,114.28571428571429,-27C138.0952380952381,-14.916666666666668,147.61904761904765,92.25,171.42857142857144,86C195.23809523809524,79.75,204.76190476190476,-45.75,228.57142857142858,-57C252.3809523809524,-68.25,261.9047619047619,23.25,285.7142857142857,32C309.5238095238095,40.75,319.0476190476191,-19.166666666666668,342.8571428571429,-15C366.6666666666667,-10.833333333333332,376.1904761904762,58.666666666666664,400,52C423.8095238095238,45.333333333333336,433.33333333333337,-49.291666666666664,457.14285714285717,-47C480.95238095238096,-44.708333333333336,490.47619047619054,62.791666666666664,514.2857142857143,63C538.0952380952382,63.208333333333336,547.6190476190477,-53.916666666666664,571.4285714285714,-46C595.2380952380952,-38.083333333333336,604.7619047619047,101.83333333333333,628.5714285714286,101C652.3809523809524,100.16666666666667,661.9047619047619,-38.33333333333333,685.7142857142858,-50C709.5238095238096,-61.66666666666667,719.047619047619,35.833333333333336,742.8571428571429,45C766.6666666666667,54.166666666666664,788.0952380952381,4.625,800,-6" transform="matrix(1,0,0,1,0,2322)"></path><path d="M10,10C19.821428571428573,13.75,35.41666666666667,35.708333333333336,57.142857142857146,28C78.86904761904762,20.291666666666664,90.47619047619048,-39.08333333333333,114.28571428571429,-27C138.0952380952381,-14.916666666666668,147.61904761904765,92.25,171.42857142857144,86C195.23809523809524,79.75,204.76190476190476,-45.75,228.57142857142858,-57C252.3809523809524,-68.25,261.9047619047619,23.25,285.7142857142857,32C309.5238095238095,40.75,319.0476190476191,-19.166666666666668,342.8571428571429,-15C366.6666666666667,-10.833333333333332,376.1904761904762,58.666666666666664,400,52C423.8095238095238,45.333333333333336,433.33333333333337,-49.291666666666664,457.14285714285717,-47C480.95238095238096,-44.708333333333336,490.47619047619054,62.791666666666664,514.2857142857143,63C538.0952380952382,63.208333333333336,547.6190476190477,-53.916666666666664,571.4285714285714,-46C595.2380952380952,-38.083333333333336,604.7619047619047,101.83333333333333,628.5714285714286,101C652.3809523809524,100.16666666666667,661.9047619047619,-38.33333333333333,685.7142857142858,-50C709.5238095238096,-61.66666666666667,719.047619047619,35.833333333333336,742.8571428571429,45C766.6666666666667,54.166666666666664,788.0952380952381,4.625,800,-6" transform="matrix(1,0,0,1,0,2236)"></path><path d="M10,10C19.821428571428573,13.75,35.41666666666667,35.708333333333336,57.142857142857146,28C78.86904761904762,20.291666666666664,90.47619047619048,-39.08333333333333,114.28571428571429,-27C138.0952380952381,-14.916666666666668,147.61904761904765,92.25,171.42857142857144,86C195.23809523809524,79.75,204.76190476190476,-45.75,228.57142857142858,-57C252.3809523809524,-68.25,261.9047619047619,23.25,285.7142857142857,32C309.5238095238095,40.75,319.0476190476191,-19.166666666666668,342.8571428571429,-15C366.6666666666667,-10.833333333333332,376.1904761904762,58.666666666666664,400,52C423.8095238095238,45.333333333333336,433.33333333333337,-49.291666666666664,457.14285714285717,-47C480.95238095238096,-44.708333333333336,490.47619047619054,62.791666666666664,514.2857142857143,63C538.0952380952382,63.208333333333336,547.6190476190477,-53.916666666666664,571.4285714285714,-46C595.2380952380952,-38.083333333333336,604.7619047619047,101.83333333333333,628.5714285714286,101C652.3809523809524,100.16666666666667,661.9047619047619,-38.33333333333333,685.7142857142858,-50C709.5238095238096,-61.66666666666667,719.047619047619,35.833333333333336,742.8571428571429,45C766.6666666666667,54.166666666666664,788.0952380952381,4.625,800,-6" transform="matrix(1,0,0,1,0,2150)"></path><path d="M10,10C19.821428571428573,13.75,35.41666666666667,35.708333333333336,57.142857142857146,28C78.86904761904762,20.291666666666664,90.47619047619048,-39.08333333333333,114.28571428571429,-27C138.0952380952381,-14.916666666666668,147.61904761904765,92.25,171.42857142857144,86C195.23809523809524,79.75,204.76190476190476,-45.75,228.57142857142858,-57C252.3809523809524,-68.25,261.9047619047619,23.25,285.7142857142857,32C309.5238095238095,40.75,319.0476190476191,-19.166666666666668,342.8571428571429,-15C366.6666666666667,-10.833333333333332,376.1904761904762,58.666666666666664,400,52C423.8095238095238,45.333333333333336,433.33333333333337,-49.291666666666664,457.14285714285717,-47C480.95238095238096,-44.708333333333336,490.47619047619054,62.791666666666664,514.2857142857143,63C538.0952380952382,63.208333333333336,547.6190476190477,-53.916666666666664,571.4285714285714,-46C595.2380952380952,-38.083333333333336,604.7619047619047,101.83333333333333,628.5714285714286,101C652.3809523809524,100.16666666666667,661.9047619047619,-38.33333333333333,685.7142857142858,-50C709.5238095238096,-61.66666666666667,719.047619047619,35.833333333333336,742.8571428571429,45C766.6666666666667,54.166666666666664,788.0952380952381,4.625,800,-6" transform="matrix(1,0,0,1,0,2064)"></path><path d="M10,10C19.821428571428573,13.75,35.41666666666667,35.708333333333336,57.142857142857146,28C78.86904761904762,20.291666666666664,90.47619047619048,-39.08333333333333,114.28571428571429,-27C138.0952380952381,-14.916666666666668,147.61904761904765,92.25,171.42857142857144,86C195.23809523809524,79.75,204.76190476190476,-45.75,228.57142857142858,-57C252.3809523809524,-68.25,261.9047619047619,23.25,285.7142857142857,32C309.5238095238095,40.75,319.0476190476191,-19.166666666666668,342.8571428571429,-15C366.6666666666667,-10.833333333333332,376.1904761904762,58.666666666666664,400,52C423.8095238095238,45.333333333333336,433.33333333333337,-49.291666666666664,457.14285714285717,-47C480.95238095238096,-44.708333333333336,490.47619047619054,62.791666666666664,514.2857142857143,63C538.0952380952382,63.208333333333336,547.6190476190477,-53.916666666666664,571.4285714285714,-46C595.2380952380952,-38.083333333333336,604.7619047619047,101.83333333333333,628.5714285714286,101C652.3809523809524,100.16666666666667,661.9047619047619,-38.33333333333333,685.7142857142858,-50C709.5238095238096,-61.66666666666667,719.047619047619,35.833333333333336,742.8571428571429,45C766.6666666666667,54.166666666666664,788.0952380952381,4.625,800,-6" transform="matrix(1,0,0,1,0,1978)"></path><path d="M10,10C19.821428571428573,13.75,35.41666666666667,35.708333333333336,57.142857142857146,28C78.86904761904762,20.291666666666664,90.47619047619048,-39.08333333333333,114.28571428571429,-27C138.0952380952381,-14.916666666666668,147.61904761904765,92.25,171.42857142857144,86C195.23809523809524,79.75,204.76190476190476,-45.75,228.57142857142858,-57C252.3809523809524,-68.25,261.9047619047619,23.25,285.7142857142857,32C309.5238095238095,40.75,319.0476190476191,-19.166666666666668,342.8571428571429,-15C366.6666666666667,-10.833333333333332,376.1904761904762,58.666666666666664,400,52C423.8095238095238,45.333333333333336,433.33333333333337,-49.291666666666664,457.14285714285717,-47C480.95238095238096,-44.708333333333336,490.47619047619054,62.791666666666664,514.2857142857143,63C538.0952380952382,63.208333333333336,547.6190476190477,-53.916666666666664,571.4285714285714,-46C595.2380952380952,-38.083333333333336,604.7619047619047,101.83333333333333,628.5714285714286,101C652.3809523809524,100.16666666666667,661.9047619047619,-38.33333333333333,685.7142857142858,-50C709.5238095238096,-61.66666666666667,719.047619047619,35.833333333333336,742.8571428571429,45C766.6666666666667,54.166666666666664,788.0952380952381,4.625,800,-6" transform="matrix(1,0,0,1,0,1892)"></path><path d="M10,10C19.821428571428573,13.75,35.41666666666667,35.708333333333336,57.142857142857146,28C78.86904761904762,20.291666666666664,90.47619047619048,-39.08333333333333,114.28571428571429,-27C138.0952380952381,-14.916666666666668,147.61904761904765,92.25,171.42857142857144,86C195.23809523809524,79.75,204.76190476190476,-45.75,228.57142857142858,-57C252.3809523809524,-68.25,261.9047619047619,23.25,285.7142857142857,32C309.5238095238095,40.75,319.0476190476191,-19.166666666666668,342.8571428571429,-15C366.6666666666667,-10.833333333333332,376.1904761904762,58.666666666666664,400,52C423.8095238095238,45.333333333333336,433.33333333333337,-49.291666666666664,457.14285714285717,-47C480.95238095238096,-44.708333333333336,490.47619047619054,62.791666666666664,514.2857142857143,63C538.0952380952382,63.208333333333336,547.6190476190477,-53.916666666666664,571.4285714285714,-46C595.2380952380952,-38.083333333333336,604.7619047619047,101.83333333333333,628.5714285714286,101C652.3809523809524,100.16666666666667,661.9047619047619,-38.33333333333333,685.7142857142858,-50C709.5238095238096,-61.66666666666667,719.047619047619,35.833333333333336,742.8571428571429,45C766.6666666666667,54.166666666666664,788.0952380952381,4.625,800,-6" transform="matrix(1,0,0,1,0,1806)"></path><path d="M10,10C19.821428571428573,13.75,35.41666666666667,35.708333333333336,57.142857142857146,28C78.86904761904762,20.291666666666664,90.47619047619048,-39.08333333333333,114.28571428571429,-27C138.0952380952381,-14.916666666666668,147.61904761904765,92.25,171.42857142857144,86C195.23809523809524,79.75,204.76190476190476,-45.75,228.57142857142858,-57C252.3809523809524,-68.25,261.9047619047619,23.25,285.7142857142857,32C309.5238095238095,40.75,319.0476190476191,-19.166666666666668,342.8571428571429,-15C366.6666666666667,-10.833333333333332,376.1904761904762,58.666666666666664,400,52C423.8095238095238,45.333333333333336,433.33333333333337,-49.291666666666664,457.14285714285717,-47C480.95238095238096,-44.708333333333336,490.47619047619054,62.791666666666664,514.2857142857143,63C538.0952380952382,63.208333333333336,547.6190476190477,-53.916666666666664,571.4285714285714,-46C595.2380952380952,-38.083333333333336,604.7619047619047,101.83333333333333,628.5714285714286,101C652.3809523809524,100.16666666666667,661.9047619047619,-38.33333333333333,685.7142857142858,-50C709.5238095238096,-61.66666666666667,719.047619047619,35.833333333333336,742.8571428571429,45C766.6666666666667,54.166666666666664,788.0952380952381,4.625,800,-6" transform="matrix(1,0,0,1,0,1720)"></path><path d="M10,10C19.821428571428573,13.75,35.41666666666667,35.708333333333336,57.142857142857146,28C78.86904761904762,20.291666666666664,90.47619047619048,-39.08333333333333,114.28571428571429,-27C138.0952380952381,-14.916666666666668,147.61904761904765,92.25,171.42857142857144,86C195.23809523809524,79.75,204.76190476190476,-45.75,228.57142857142858,-57C252.3809523809524,-68.25,261.9047619047619,23.25,285.7142857142857,32C309.5238095238095,40.75,319.0476190476191,-19.166666666666668,342.8571428571429,-15C366.6666666666667,-10.833333333333332,376.1904761904762,58.666666666666664,400,52C423.8095238095238,45.333333333333336,433.33333333333337,-49.291666666666664,457.14285714285717,-47C480.95238095238096,-44.708333333333336,490.47619047619054,62.791666666666664,514.2857142857143,63C538.0952380952382,63.208333333333336,547.6190476190477,-53.916666666666664,571.4285714285714,-46C595.2380952380952,-38.083333333333336,604.7619047619047,101.83333333333333,628.5714285714286,101C652.3809523809524,100.16666666666667,661.9047619047619,-38.33333333333333,685.7142857142858,-50C709.5238095238096,-61.66666666666667,719.047619047619,35.833333333333336,742.8571428571429,45C766.6666666666667,54.166666666666664,788.0952380952381,4.625,800,-6" transform="matrix(1,0,0,1,0,1634)"></path><path d="M10,10C19.821428571428573,13.75,35.41666666666667,35.708333333333336,57.142857142857146,28C78.86904761904762,20.291666666666664,90.47619047619048,-39.08333333333333,114.28571428571429,-27C138.0952380952381,-14.916666666666668,147.61904761904765,92.25,171.42857142857144,86C195.23809523809524,79.75,204.76190476190476,-45.75,228.57142857142858,-57C252.3809523809524,-68.25,261.9047619047619,23.25,285.7142857142857,32C309.5238095238095,40.75,319.0476190476191,-19.166666666666668,342.8571428571429,-15C366.6666666666667,-10.833333333333332,376.1904761904762,58.666666666666664,400,52C423.8095238095238,45.333333333333336,433.33333333333337,-49.291666666666664,457.14285714285717,-47C480.95238095238096,-44.708333333333336,490.47619047619054,62.791666666666664,514.2857142857143,63C538.0952380952382,63.208333333333336,547.6190476190477,-53.916666666666664,571.4285714285714,-46C595.2380952380952,-38.083333333333336,604.7619047619047,101.83333333333333,628.5714285714286,101C652.3809523809524,100.16666666666667,661.9047619047619,-38.33333333333333,685.7142857142858,-50C709.5238095238096,-61.66666666666667,719.047619047619,35.833333333333336,742.8571428571429,45C766.6666666666667,54.166666666666664,788.0952380952381,4.625,800,-6" transform="matrix(1,0,0,1,0,1548)"></path><path d="M10,10C19.821428571428573,13.75,35.41666666666667,35.708333333333336,57.142857142857146,28C78.86904761904762,20.291666666666664,90.47619047619048,-39.08333333333333,114.28571428571429,-27C138.0952380952381,-14.916666666666668,147.61904761904765,92.25,171.42857142857144,86C195.23809523809524,79.75,204.76190476190476,-45.75,228.57142857142858,-57C252.3809523809524,-68.25,261.9047619047619,23.25,285.7142857142857,32C309.5238095238095,40.75,319.0476190476191,-19.166666666666668,342.8571428571429,-15C366.6666666666667,-10.833333333333332,376.1904761904762,58.666666666666664,400,52C423.8095238095238,45.333333333333336,433.33333333333337,-49.291666666666664,457.14285714285717,-47C480.95238095238096,-44.708333333333336,490.47619047619054,62.791666666666664,514.2857142857143,63C538.0952380952382,63.208333333333336,547.6190476190477,-53.916666666666664,571.4285714285714,-46C595.2380952380952,-38.083333333333336,604.7619047619047,101.83333333333333,628.5714285714286,101C652.3809523809524,100.16666666666667,661.9047619047619,-38.33333333333333,685.7142857142858,-50C709.5238095238096,-61.66666666666667,719.047619047619,35.833333333333336,742.8571428571429,45C766.6666666666667,54.166666666666664,788.0952380952381,4.625,800,-6" transform="matrix(1,0,0,1,0,1462)"></path><path d="M10,10C19.821428571428573,13.75,35.41666666666667,35.708333333333336,57.142857142857146,28C78.86904761904762,20.291666666666664,90.47619047619048,-39.08333333333333,114.28571428571429,-27C138.0952380952381,-14.916666666666668,147.61904761904765,92.25,171.42857142857144,86C195.23809523809524,79.75,204.76190476190476,-45.75,228.57142857142858,-57C252.3809523809524,-68.25,261.9047619047619,23.25,285.7142857142857,32C309.5238095238095,40.75,319.0476190476191,-19.166666666666668,342.8571428571429,-15C366.6666666666667,-10.833333333333332,376.1904761904762,58.666666666666664,400,52C423.8095238095238,45.333333333333336,433.33333333333337,-49.291666666666664,457.14285714285717,-47C480.95238095238096,-44.708333333333336,490.47619047619054,62.791666666666664,514.2857142857143,63C538.0952380952382,63.208333333333336,547.6190476190477,-53.916666666666664,571.4285714285714,-46C595.2380952380952,-38.083333333333336,604.7619047619047,101.83333333333333,628.5714285714286,101C652.3809523809524,100.16666666666667,661.9047619047619,-38.33333333333333,685.7142857142858,-50C709.5238095238096,-61.66666666666667,719.047619047619,35.833333333333336,742.8571428571429,45C766.6666666666667,54.166666666666664,788.0952380952381,4.625,800,-6" transform="matrix(1,0,0,1,0,1376)"></path><path d="M10,10C19.821428571428573,13.75,35.41666666666667,35.708333333333336,57.142857142857146,28C78.86904761904762,20.291666666666664,90.47619047619048,-39.08333333333333,114.28571428571429,-27C138.0952380952381,-14.916666666666668,147.61904761904765,92.25,171.42857142857144,86C195.23809523809524,79.75,204.76190476190476,-45.75,228.57142857142858,-57C252.3809523809524,-68.25,261.9047619047619,23.25,285.7142857142857,32C309.5238095238095,40.75,319.0476190476191,-19.166666666666668,342.8571428571429,-15C366.6666666666667,-10.833333333333332,376.1904761904762,58.666666666666664,400,52C423.8095238095238,45.333333333333336,433.33333333333337,-49.291666666666664,457.14285714285717,-47C480.95238095238096,-44.708333333333336,490.47619047619054,62.791666666666664,514.2857142857143,63C538.0952380952382,63.208333333333336,547.6190476190477,-53.916666666666664,571.4285714285714,-46C595.2380952380952,-38.083333333333336,604.7619047619047,101.83333333333333,628.5714285714286,101C652.3809523809524,100.16666666666667,661.9047619047619,-38.33333333333333,685.7142857142858,-50C709.5238095238096,-61.66666666666667,719.047619047619,35.833333333333336,742.8571428571429,45C766.6666666666667,54.166666666666664,788.0952380952381,4.625,800,-6" transform="matrix(1,0,0,1,0,1290)"></path><path d="M10,10C19.821428571428573,13.75,35.41666666666667,35.708333333333336,57.142857142857146,28C78.86904761904762,20.291666666666664,90.47619047619048,-39.08333333333333,114.28571428571429,-27C138.0952380952381,-14.916666666666668,147.61904761904765,92.25,171.42857142857144,86C195.23809523809524,79.75,204.76190476190476,-45.75,228.57142857142858,-57C252.3809523809524,-68.25,261.9047619047619,23.25,285.7142857142857,32C309.5238095238095,40.75,319.0476190476191,-19.166666666666668,342.8571428571429,-15C366.6666666666667,-10.833333333333332,376.1904761904762,58.666666666666664,400,52C423.8095238095238,45.333333333333336,433.33333333333337,-49.291666666666664,457.14285714285717,-47C480.95238095238096,-44.708333333333336,490.47619047619054,62.791666666666664,514.2857142857143,63C538.0952380952382,63.208333333333336,547.6190476190477,-53.916666666666664,571.4285714285714,-46C595.2380952380952,-38.083333333333336,604.7619047619047,101.83333333333333,628.5714285714286,101C652.3809523809524,100.16666666666667,661.9047619047619,-38.33333333333333,685.7142857142858,-50C709.5238095238096,-61.66666666666667,719.047619047619,35.833333333333336,742.8571428571429,45C766.6666666666667,54.166666666666664,788.0952380952381,4.625,800,-6" transform="matrix(1,0,0,1,0,1204)"></path><path d="M10,10C19.821428571428573,13.75,35.41666666666667,35.708333333333336,57.142857142857146,28C78.86904761904762,20.291666666666664,90.47619047619048,-39.08333333333333,114.28571428571429,-27C138.0952380952381,-14.916666666666668,147.61904761904765,92.25,171.42857142857144,86C195.23809523809524,79.75,204.76190476190476,-45.75,228.57142857142858,-57C252.3809523809524,-68.25,261.9047619047619,23.25,285.7142857142857,32C309.5238095238095,40.75,319.0476190476191,-19.166666666666668,342.8571428571429,-15C366.6666666666667,-10.833333333333332,376.1904761904762,58.666666666666664,400,52C423.8095238095238,45.333333333333336,433.33333333333337,-49.291666666666664,457.14285714285717,-47C480.95238095238096,-44.708333333333336,490.47619047619054,62.791666666666664,514.2857142857143,63C538.0952380952382,63.208333333333336,547.6190476190477,-53.916666666666664,571.4285714285714,-46C595.2380952380952,-38.083333333333336,604.7619047619047,101.83333333333333,628.5714285714286,101C652.3809523809524,100.16666666666667,661.9047619047619,-38.33333333333333,685.7142857142858,-50C709.5238095238096,-61.66666666666667,719.047619047619,35.833333333333336,742.8571428571429,45C766.6666666666667,54.166666666666664,788.0952380952381,4.625,800,-6" transform="matrix(1,0,0,1,0,1118)"></path><path d="M10,10C19.821428571428573,13.75,35.41666666666667,35.708333333333336,57.142857142857146,28C78.86904761904762,20.291666666666664,90.47619047619048,-39.08333333333333,114.28571428571429,-27C138.0952380952381,-14.916666666666668,147.61904761904765,92.25,171.42857142857144,86C195.23809523809524,79.75,204.76190476190476,-45.75,228.57142857142858,-57C252.3809523809524,-68.25,261.9047619047619,23.25,285.7142857142857,32C309.5238095238095,40.75,319.0476190476191,-19.166666666666668,342.8571428571429,-15C366.6666666666667,-10.833333333333332,376.1904761904762,58.666666666666664,400,52C423.8095238095238,45.333333333333336,433.33333333333337,-49.291666666666664,457.14285714285717,-47C480.95238095238096,-44.708333333333336,490.47619047619054,62.791666666666664,514.2857142857143,63C538.0952380952382,63.208333333333336,547.6190476190477,-53.916666666666664,571.4285714285714,-46C595.2380952380952,-38.083333333333336,604.7619047619047,101.83333333333333,628.5714285714286,101C652.3809523809524,100.16666666666667,661.9047619047619,-38.33333333333333,685.7142857142858,-50C709.5238095238096,-61.66666666666667,719.047619047619,35.833333333333336,742.8571428571429,45C766.6666666666667,54.166666666666664,788.0952380952381,4.625,800,-6" transform="matrix(1,0,0,1,0,1032)"></path><path d="M10,10C19.821428571428573,13.75,35.41666666666667,35.708333333333336,57.142857142857146,28C78.86904761904762,20.291666666666664,90.47619047619048,-39.08333333333333,114.28571428571429,-27C138.0952380952381,-14.916666666666668,147.61904761904765,92.25,171.42857142857144,86C195.23809523809524,79.75,204.76190476190476,-45.75,228.57142857142858,-57C252.3809523809524,-68.25,261.9047619047619,23.25,285.7142857142857,32C309.5238095238095,40.75,319.0476190476191,-19.166666666666668,342.8571428571429,-15C366.6666666666667,-10.833333333333332,376.1904761904762,58.666666666666664,400,52C423.8095238095238,45.333333333333336,433.33333333333337,-49.291666666666664,457.14285714285717,-47C480.95238095238096,-44.708333333333336,490.47619047619054,62.791666666666664,514.2857142857143,63C538.0952380952382,63.208333333333336,547.6190476190477,-53.916666666666664,571.4285714285714,-46C595.2380952380952,-38.083333333333336,604.7619047619047,101.83333333333333,628.5714285714286,101C652.3809523809524,100.16666666666667,661.9047619047619,-38.33333333333333,685.7142857142858,-50C709.5238095238096,-61.66666666666667,719.047619047619,35.833333333333336,742.8571428571429,45C766.6666666666667,54.166666666666664,788.0952380952381,4.625,800,-6" transform="matrix(1,0,0,1,0,946)"></path><path d="M10,10C19.821428571428573,13.75,35.41666666666667,35.708333333333336,57.142857142857146,28C78.86904761904762,20.291666666666664,90.47619047619048,-39.08333333333333,114.28571428571429,-27C138.0952380952381,-14.916666666666668,147.61904761904765,92.25,171.42857142857144,86C195.23809523809524,79.75,204.76190476190476,-45.75,228.57142857142858,-57C252.3809523809524,-68.25,261.9047619047619,23.25,285.7142857142857,32C309.5238095238095,40.75,319.0476190476191,-19.166666666666668,342.8571428571429,-15C366.6666666666667,-10.833333333333332,376.1904761904762,58.666666666666664,400,52C423.8095238095238,45.333333333333336,433.33333333333337,-49.291666666666664,457.14285714285717,-47C480.95238095238096,-44.708333333333336,490.47619047619054,62.791666666666664,514.2857142857143,63C538.0952380952382,63.208333333333336,547.6190476190477,-53.916666666666664,571.4285714285714,-46C595.2380952380952,-38.083333333333336,604.7619047619047,101.83333333333333,628.5714285714286,101C652.3809523809524,100.16666666666667,661.9047619047619,-38.33333333333333,685.7142857142858,-50C709.5238095238096,-61.66666666666667,719.047619047619,35.833333333333336,742.8571428571429,45C766.6666666666667,54.166666666666664,788.0952380952381,4.625,800,-6" transform="matrix(1,0,0,1,0,860)"></path><path d="M10,10C19.821428571428573,13.75,35.41666666666667,35.708333333333336,57.142857142857146,28C78.86904761904762,20.291666666666664,90.47619047619048,-39.08333333333333,114.28571428571429,-27C138.0952380952381,-14.916666666666668,147.61904761904765,92.25,171.42857142857144,86C195.23809523809524,79.75,204.76190476190476,-45.75,228.57142857142858,-57C252.3809523809524,-68.25,261.9047619047619,23.25,285.7142857142857,32C309.5238095238095,40.75,319.0476190476191,-19.166666666666668,342.8571428571429,-15C366.6666666666667,-10.833333333333332,376.1904761904762,58.666666666666664,400,52C423.8095238095238,45.333333333333336,433.33333333333337,-49.291666666666664,457.14285714285717,-47C480.95238095238096,-44.708333333333336,490.47619047619054,62.791666666666664,514.2857142857143,63C538.0952380952382,63.208333333333336,547.6190476190477,-53.916666666666664,571.4285714285714,-46C595.2380952380952,-38.083333333333336,604.7619047619047,101.83333333333333,628.5714285714286,101C652.3809523809524,100.16666666666667,661.9047619047619,-38.33333333333333,685.7142857142858,-50C709.5238095238096,-61.66666666666667,719.047619047619,35.833333333333336,742.8571428571429,45C766.6666666666667,54.166666666666664,788.0952380952381,4.625,800,-6" transform="matrix(1,0,0,1,0,774)"></path><path d="M10,10C19.821428571428573,13.75,35.41666666666667,35.708333333333336,57.142857142857146,28C78.86904761904762,20.291666666666664,90.47619047619048,-39.08333333333333,114.28571428571429,-27C138.0952380952381,-14.916666666666668,147.61904761904765,92.25,171.42857142857144,86C195.23809523809524,79.75,204.76190476190476,-45.75,228.57142857142858,-57C252.3809523809524,-68.25,261.9047619047619,23.25,285.7142857142857,32C309.5238095238095,40.75,319.0476190476191,-19.166666666666668,342.8571428571429,-15C366.6666666666667,-10.833333333333332,376.1904761904762,58.666666666666664,400,52C423.8095238095238,45.333333333333336,433.33333333333337,-49.291666666666664,457.14285714285717,-47C480.95238095238096,-44.708333333333336,490.47619047619054,62.791666666666664,514.2857142857143,63C538.0952380952382,63.208333333333336,547.6190476190477,-53.916666666666664,571.4285714285714,-46C595.2380952380952,-38.083333333333336,604.7619047619047,101.83333333333333,628.5714285714286,101C652.3809523809524,100.16666666666667,661.9047619047619,-38.33333333333333,685.7142857142858,-50C709.5238095238096,-61.66666666666667,719.047619047619,35.833333333333336,742.8571428571429,45C766.6666666666667,54.166666666666664,788.0952380952381,4.625,800,-6" transform="matrix(1,0,0,1,0,688)"></path><path d="M10,10C19.821428571428573,13.75,35.41666666666667,35.708333333333336,57.142857142857146,28C78.86904761904762,20.291666666666664,90.47619047619048,-39.08333333333333,114.28571428571429,-27C138.0952380952381,-14.916666666666668,147.61904761904765,92.25,171.42857142857144,86C195.23809523809524,79.75,204.76190476190476,-45.75,228.57142857142858,-57C252.3809523809524,-68.25,261.9047619047619,23.25,285.7142857142857,32C309.5238095238095,40.75,319.0476190476191,-19.166666666666668,342.8571428571429,-15C366.6666666666667,-10.833333333333332,376.1904761904762,58.666666666666664,400,52C423.8095238095238,45.333333333333336,433.33333333333337,-49.291666666666664,457.14285714285717,-47C480.95238095238096,-44.708333333333336,490.47619047619054,62.791666666666664,514.2857142857143,63C538.0952380952382,63.208333333333336,547.6190476190477,-53.916666666666664,571.4285714285714,-46C595.2380952380952,-38.083333333333336,604.7619047619047,101.83333333333333,628.5714285714286,101C652.3809523809524,100.16666666666667,661.9047619047619,-38.33333333333333,685.7142857142858,-50C709.5238095238096,-61.66666666666667,719.047619047619,35.833333333333336,742.8571428571429,45C766.6666666666667,54.166666666666664,788.0952380952381,4.625,800,-6" transform="matrix(1,0,0,1,0,602)"></path><path d="M10,10C19.821428571428573,13.75,35.41666666666667,35.708333333333336,57.142857142857146,28C78.86904761904762,20.291666666666664,90.47619047619048,-39.08333333333333,114.28571428571429,-27C138.0952380952381,-14.916666666666668,147.61904761904765,92.25,171.42857142857144,86C195.23809523809524,79.75,204.76190476190476,-45.75,228.57142857142858,-57C252.3809523809524,-68.25,261.9047619047619,23.25,285.7142857142857,32C309.5238095238095,40.75,319.0476190476191,-19.166666666666668,342.8571428571429,-15C366.6666666666667,-10.833333333333332,376.1904761904762,58.666666666666664,400,52C423.8095238095238,45.333333333333336,433.33333333333337,-49.291666666666664,457.14285714285717,-47C480.95238095238096,-44.708333333333336,490.47619047619054,62.791666666666664,514.2857142857143,63C538.0952380952382,63.208333333333336,547.6190476190477,-53.916666666666664,571.4285714285714,-46C595.2380952380952,-38.083333333333336,604.7619047619047,101.83333333333333,628.5714285714286,101C652.3809523809524,100.16666666666667,661.9047619047619,-38.33333333333333,685.7142857142858,-50C709.5238095238096,-61.66666666666667,719.047619047619,35.833333333333336,742.8571428571429,45C766.6666666666667,54.166666666666664,788.0952380952381,4.625,800,-6" transform="matrix(1,0,0,1,0,516)"></path><path d="M10,10C19.821428571428573,13.75,35.41666666666667,35.708333333333336,57.142857142857146,28C78.86904761904762,20.291666666666664,90.47619047619048,-39.08333333333333,114.28571428571429,-27C138.0952380952381,-14.916666666666668,147.61904761904765,92.25,171.42857142857144,86C195.23809523809524,79.75,204.76190476190476,-45.75,228.57142857142858,-57C252.3809523809524,-68.25,261.9047619047619,23.25,285.7142857142857,32C309.5238095238095,40.75,319.0476190476191,-19.166666666666668,342.8571428571429,-15C366.6666666666667,-10.833333333333332,376.1904761904762,58.666666666666664,400,52C423.8095238095238,45.333333333333336,433.33333333333337,-49.291666666666664,457.14285714285717,-47C480.95238095238096,-44.708333333333336,490.47619047619054,62.791666666666664,514.2857142857143,63C538.0952380952382,63.208333333333336,547.6190476190477,-53.916666666666664,571.4285714285714,-46C595.2380952380952,-38.083333333333336,604.7619047619047,101.83333333333333,628.5714285714286,101C652.3809523809524,100.16666666666667,661.9047619047619,-38.33333333333333,685.7142857142858,-50C709.5238095238096,-61.66666666666667,719.047619047619,35.833333333333336,742.8571428571429,45C766.6666666666667,54.166666666666664,788.0952380952381,4.625,800,-6" transform="matrix(1,0,0,1,0,430)"></path><path d="M10,10C19.821428571428573,13.75,35.41666666666667,35.708333333333336,57.142857142857146,28C78.86904761904762,20.291666666666664,90.47619047619048,-39.08333333333333,114.28571428571429,-27C138.0952380952381,-14.916666666666668,147.61904761904765,92.25,171.42857142857144,86C195.23809523809524,79.75,204.76190476190476,-45.75,228.57142857142858,-57C252.3809523809524,-68.25,261.9047619047619,23.25,285.7142857142857,32C309.5238095238095,40.75,319.0476190476191,-19.166666666666668,342.8571428571429,-15C366.6666666666667,-10.833333333333332,376.1904761904762,58.666666666666664,400,52C423.8095238095238,45.333333333333336,433.33333333333337,-49.291666666666664,457.14285714285717,-47C480.95238095238096,-44.708333333333336,490.47619047619054,62.791666666666664,514.2857142857143,63C538.0952380952382,63.208333333333336,547.6190476190477,-53.916666666666664,571.4285714285714,-46C595.2380952380952,-38.083333333333336,604.7619047619047,101.83333333333333,628.5714285714286,101C652.3809523809524,100.16666666666667,661.9047619047619,-38.33333333333333,685.7142857142858,-50C709.5238095238096,-61.66666666666667,719.047619047619,35.833333333333336,742.8571428571429,45C766.6666666666667,54.166666666666664,788.0952380952381,4.625,800,-6" transform="matrix(1,0,0,1,0,344)"></path><path d="M10,10C19.821428571428573,13.75,35.41666666666667,35.708333333333336,57.142857142857146,28C78.86904761904762,20.291666666666664,90.47619047619048,-39.08333333333333,114.28571428571429,-27C138.0952380952381,-14.916666666666668,147.61904761904765,92.25,171.42857142857144,86C195.23809523809524,79.75,204.76190476190476,-45.75,228.57142857142858,-57C252.3809523809524,-68.25,261.9047619047619,23.25,285.7142857142857,32C309.5238095238095,40.75,319.0476190476191,-19.166666666666668,342.8571428571429,-15C366.6666666666667,-10.833333333333332,376.1904761904762,58.666666666666664,400,52C423.8095238095238,45.333333333333336,433.33333333333337,-49.291666666666664,457.14285714285717,-47C480.95238095238096,-44.708333333333336,490.47619047619054,62.791666666666664,514.2857142857143,63C538.0952380952382,63.208333333333336,547.6190476190477,-53.916666666666664,571.4285714285714,-46C595.2380952380952,-38.083333333333336,604.7619047619047,101.83333333333333,628.5714285714286,101C652.3809523809524,100.16666666666667,661.9047619047619,-38.33333333333333,685.7142857142858,-50C709.5238095238096,-61.66666666666667,719.047619047619,35.833333333333336,742.8571428571429,45C766.6666666666667,54.166666666666664,788.0952380952381,4.625,800,-6" transform="matrix(1,0,0,1,0,258)"></path><path d="M10,10C19.821428571428573,13.75,35.41666666666667,35.708333333333336,57.142857142857146,28C78.86904761904762,20.291666666666664,90.47619047619048,-39.08333333333333,114.28571428571429,-27C138.0952380952381,-14.916666666666668,147.61904761904765,92.25,171.42857142857144,86C195.23809523809524,79.75,204.76190476190476,-45.75,228.57142857142858,-57C252.3809523809524,-68.25,261.9047619047619,23.25,285.7142857142857,32C309.5238095238095,40.75,319.0476190476191,-19.166666666666668,342.8571428571429,-15C366.6666666666667,-10.833333333333332,376.1904761904762,58.666666666666664,400,52C423.8095238095238,45.333333333333336,433.33333333333337,-49.291666666666664,457.14285714285717,-47C480.95238095238096,-44.708333333333336,490.47619047619054,62.791666666666664,514.2857142857143,63C538.0952380952382,63.208333333333336,547.6190476190477,-53.916666666666664,571.4285714285714,-46C595.2380952380952,-38.083333333333336,604.7619047619047,101.83333333333333,628.5714285714286,101C652.3809523809524,100.16666666666667,661.9047619047619,-38.33333333333333,685.7142857142858,-50C709.5238095238096,-61.66666666666667,719.047619047619,35.833333333333336,742.8571428571429,45C766.6666666666667,54.166666666666664,788.0952380952381,4.625,800,-6" transform="matrix(1,0,0,1,0,172)"></path><path d="M10,10C19.821428571428573,13.75,35.41666666666667,35.708333333333336,57.142857142857146,28C78.86904761904762,20.291666666666664,90.47619047619048,-39.08333333333333,114.28571428571429,-27C138.0952380952381,-14.916666666666668,147.61904761904765,92.25,171.42857142857144,86C195.23809523809524,79.75,204.76190476190476,-45.75,228.57142857142858,-57C252.3809523809524,-68.25,261.9047619047619,23.25,285.7142857142857,32C309.5238095238095,40.75,319.0476190476191,-19.166666666666668,342.8571428571429,-15C366.6666666666667,-10.833333333333332,376.1904761904762,58.666666666666664,400,52C423.8095238095238,45.333333333333336,433.33333333333337,-49.291666666666664,457.14285714285717,-47C480.95238095238096,-44.708333333333336,490.47619047619054,62.791666666666664,514.2857142857143,63C538.0952380952382,63.208333333333336,547.6190476190477,-53.916666666666664,571.4285714285714,-46C595.2380952380952,-38.083333333333336,604.7619047619047,101.83333333333333,628.5714285714286,101C652.3809523809524,100.16666666666667,661.9047619047619,-38.33333333333333,685.7142857142858,-50C709.5238095238096,-61.66666666666667,719.047619047619,35.833333333333336,742.8571428571429,45C766.6666666666667,54.166666666666664,788.0952380952381,4.625,800,-6" transform="matrix(1,0,0,1,0,86)"></path></g></svg>